<svg width="19" height="14" viewBox="0 0 19 14" fill="none" xmlns="http://www.w3.org/2000/svg">
<path d="M18.117 2.62477C17.9233 2.60239 17.7272 2.63715 17.553 2.72477L13 4.99977V8.99977L17.553 11.2748C17.7053 11.3509 17.8744 11.3868 18.0445 11.3792C18.2145 11.3717 18.3799 11.3208 18.5248 11.2315C18.6697 11.1422 18.7894 11.0173 18.8725 10.8688C18.9557 10.7203 18.9996 10.553 19 10.3828V3.61677C18.9997 3.37201 18.9097 3.13585 18.747 2.95302C18.5842 2.7702 18.3601 2.65341 18.117 2.62477Z" fill="black"/>
<path d="M3 0C1.355 0 0 1.355 0 3V11C0 12.645 1.355 14 3 14H11C12.645 14 14 12.645 14 11V3C14 1.355 12.645 0 11 0H3Z" fill="black"/>
</svg>
