<svg width="24" height="24" viewBox="0 0 24 24" fill="none" xmlns="http://www.w3.org/2000/svg">
<path d="M11.9994 21C11.2994 21 10.7077 20.7583 10.2244 20.275C9.74103 19.7917 9.49936 19.2 9.49936 18.5C9.49936 17.8 9.74103 17.2083 10.2244 16.725C10.7077 16.2417 11.2994 16 11.9994 16C12.6994 16 13.291 16.2417 13.7744 16.725C14.2577 17.2083 14.4994 17.8 14.4994 18.5C14.4994 19.2 14.2577 19.7917 13.7744 20.275C13.291 20.7583 12.6994 21 11.9994 21ZM11.9994 10C13.2494 10 14.437 10.2 15.5624 10.6C16.6877 11 17.7084 11.55 18.6244 12.25C18.9577 12.5 19.1287 12.8293 19.1374 13.238C19.146 13.6467 19 14.0007 18.6994 14.3C18.416 14.5833 18.066 14.7293 17.6494 14.738C17.2327 14.7467 16.8577 14.634 16.5244 14.4C15.891 13.9667 15.191 13.625 14.4244 13.375C13.6577 13.125 12.8494 13 11.9994 13C11.1494 13 10.341 13.125 9.57436 13.375C8.8077 13.625 8.1077 13.9667 7.47436 14.4C7.14103 14.6333 6.76603 14.7417 6.34936 14.725C5.9327 14.7083 5.5827 14.5583 5.29936 14.275C5.01603 13.975 4.87436 13.621 4.87436 13.213C4.87436 12.805 5.04103 12.4757 5.37436 12.225C6.29103 11.525 7.31203 10.979 8.43736 10.587C9.5627 10.195 10.75 9.99933 11.9994 10ZM11.9994 4C14.0827 4 16.0454 4.34167 17.8874 5.025C19.7294 5.70833 21.3834 6.675 22.8494 7.925C23.1827 8.20833 23.3577 8.55833 23.3744 8.975C23.391 9.39167 23.2494 9.75 22.9494 10.05C22.666 10.3333 22.316 10.4793 21.8994 10.488C21.4827 10.4967 21.1077 10.3673 20.7744 10.1C19.5744 9.11667 18.2287 8.35433 16.7374 7.813C15.246 7.27167 13.6667 7.00067 11.9994 7C10.332 6.99933 8.75303 7.27033 7.26236 7.813C5.7717 8.35567 4.4257 9.118 3.22436 10.1C2.89103 10.3667 2.51603 10.496 2.09936 10.488C1.6827 10.48 1.3327 10.334 1.04936 10.05C0.749363 9.75 0.607696 9.39167 0.624363 8.975C0.641029 8.55833 0.816029 8.20833 1.14936 7.925C2.61603 6.675 4.27036 5.70833 6.11236 5.025C7.95436 4.34167 9.9167 4 11.9994 4Z" fill="black"/>
</svg>
